<?xml version="1.0" encoding="UTF-8"?>
<svg id="_Слой_1" data-name="Слой 1" xmlns="http://www.w3.org/2000/svg" viewBox="0 0 113.31 113.72">
  <defs>
    <style>
      .cls-1 {
        stroke: #fbee48;
      }

      .cls-1, .cls-2, .cls-3, .cls-4 {
        fill: none;
        stroke-miterlimit: 10;
        stroke-width: 4px;
      }

      .cls-2 {
        stroke: #e55049;
      }

      .cls-3 {
        stroke: #00a65e;
      }

      .cls-4 {
        stroke: #475a9d;
      }
    </style>
  </defs>
  <path class="cls-3" d="m66.41,10.05c25.87,9.42,40.06,35.69,31.69,58.69-8.37,23-36.13,34.01-62,24.59C10.22,83.91-3.97,57.64,4.4,34.64,12.78,11.64,40.53.64,66.41,10.05Z"/>
  <path class="cls-1" d="m51.9,12.01c24.47,0,44.31,22.32,44.31,49.85,0,27.53-19.84,49.85-44.31,49.85-24.47,0-44.31-22.32-44.31-49.85,0-27.53,19.84-49.85,44.31-49.85Z"/>
  <path class="cls-2" d="m61.22,2c24.47,0,44.31,22.32,44.31,49.85,0,27.53-19.84,49.85-44.31,49.85-24.48,0-44.31-22.32-44.31-49.85,0-27.53,19.84-49.85,44.31-49.85Z"/>
  <path class="cls-4" d="m77.22,19.63c25.87,9.42,40.06,35.7,31.69,58.69-8.37,23-36.13,34-62,24.59-25.87-9.42-40.06-35.7-31.69-58.69,8.37-23,36.13-34.01,62-24.59Z"/>
</svg>